<svg xmlns="http://www.w3.org/2000/svg" xmlns:xlink="http://www.w3.org/1999/xlink" width="1260" height="841.56"><rect width="1260" height="841.56" rx="5" ry="5" class="a"/><svg y="0%" x="0%"><circle cx="20" cy="20" r="6" fill="#ff5f58"/><circle cx="40" cy="20" r="6" fill="#ffbd2e"/><circle cx="60" cy="20" r="6" fill="#18c132"/></svg><svg height="781.56" viewBox="0 0 122 78.156" width="1220" x="15" xmlns="http://www.w3.org/2000/svg" xmlns:xlink="http://www.w3.org/1999/xlink" y="50"><style>.a{fill:#282d35}.f{fill:#b9c0cb;white-space:pre}</style><g font-family="Monaco,Consolas,Menlo,'Bitstream Vera Sans Mono','Powerline Symbols',monospace" font-size="1.67"><defs><symbol id="1"><text y="1.67" class="f">└──────────────────────────────────────────────────────────────────────────────────────────────────────────────────────┘</text></symbol><symbol id="2"><text y="1.67" class="f">│</text><text x="26.052" y="1.67" class="f">│</text><text x="93.186" y="1.67" class="f">│</text><text x="119.238" y="1.67" class="f">│</text></symbol><symbol id="a"><path fill="transparent" d="M0 0h122v37H0z"/></symbol></defs><path class="a" d="M0 0h122v78.156H0z"/><svg width="122"><svg><use xlink:href="#a"/><text y="1.67" class="f">┌DeepSeekCode</text><text x="14.028" y="1.67" class="f">TUI──────────────────────────────────────────────────────────────────────────────────────────────────────┐</text><text y="3.841" class="f">│</text><text x="2.004" y="3.841" class="f">Plan</text><text x="7.014" y="3.841" class="f">│</text><text x="9.018" y="3.841" class="f">Agent</text><text x="15.03" y="3.841" class="f">│</text><text x="17.034" y="3.841" class="f">YOLO</text><text x="119.238" y="3.841" class="f">│</text><use xlink:href="#1" y="4.342"/><text y="8.183" class="f">┌Sidebar──────────────┌Command</text><text x="31.062" y="8.183" class="f">Palette───────────────────────────────────────────────────────────┐sks──────────────────┐</text><text y="10.354" class="f">│Mode:</text><text x="7.014" y="10.354" class="f">Plan</text><text x="22.044" y="10.354" class="f">│Command</text><text x="31.062" y="10.354" class="f">Palette</text><text x="97.194" y="10.354" class="f">│read:</text><text x="104.208" y="10.354" class="f">Close</text><text x="110.22" y="10.354" class="f">TUI</text><text x="114.228" y="10.354" class="f">parit│</text><text y="12.525" class="f">│</text><text x="22.044" y="12.525" class="f">│Examples:</text><text x="33.066" y="12.525" class="f">mode</text><text x="38.076" y="12.525" class="f">agent</text><text x="44.088" y="12.525" class="f">|</text><text x="46.092" y="12.525" class="f">task</text><text x="51.102" y="12.525" class="f">pause</text><text x="57.114" y="12.525" class="f">|</text><text x="59.118" y="12.525" class="f">shell</text><text x="65.13" y="12.525" class="f">cargo</text><text x="71.142" y="12.525" class="f">test</text><text x="76.152" y="12.525" class="f">|</text><text x="78.156" y="12.525" class="f">revert</text><text x="85.17" y="12.525" class="f">turn</text><text x="90.18" y="12.525" class="f">last</text><text x="97.194" y="12.525" class="f">│de/status:</text><text x="109.218" y="12.525" class="f">agent</text><text x="115.23" y="12.525" class="f">/</text><text x="117.234" y="12.525" class="f">ac│</text><text y="14.696" class="f">│Runtime</text><text x="9.018" y="14.696" class="f">session</text><text x="22.044" y="14.696" class="f">│</text><text x="97.194" y="14.696" class="f">│tems:</text><text x="104.208" y="14.696" class="f">1</text><text x="119.238" y="14.696" class="f">│</text><text y="16.867" class="f">│title:</text><text x="8.016" y="16.867" class="f">Plan</text><text x="13.026" y="16.867" class="f">product</text><text x="21.042" y="16.867" class="f">p│&gt;</text><text x="25.05" y="16.867" class="f">mode</text><text x="30.06" y="16.867" class="f">agent|</text><text x="97.194" y="16.867" class="f">│</text><text x="99.198" y="16.867" class="f">replay:</text><text x="107.214" y="16.867" class="f">latest</text><text x="114.228" y="16.867" class="f">3</text><text x="119.238" y="16.867" class="f">│</text><text y="19.038" class="f">│id:</text><text x="5.01" y="19.038" class="f">session-demo-plan│</text><text x="66.132" y="19.038" class="f">┌Thread</text><text x="74.148" y="19.038" class="f">Navigator──────────────────────────────────┐</text><text x="119.238" y="19.038" class="f">│</text><text y="21.209" class="f">│s┌Session</text><text x="11.022" y="21.209" class="f">Picker──────────────────────────┐</text><text x="66.132" y="21.209" class="f">│&gt;</text><text x="69.138" y="21.209" class="f">Close</text><text x="75.15" y="21.209" class="f">TUI</text><text x="79.158" y="21.209" class="f">parity</text><text x="86.172" y="21.209" class="f">|</text><text x="88.176" y="21.209" class="f">active</text><text x="95.19" y="21.209" class="f">|</text><text x="97.194" y="21.209" class="f">seq=12</text><text x="117.234" y="21.209" class="f">│</text><text x="119.238" y="21.209" class="f">│</text><text y="23.38" class="f">│t│&gt;</text><text x="5.01" y="23.38" class="f">Plan</text><text x="10.02" y="23.38" class="f">product</text><text x="18.036" y="23.38" class="f">parity</text><text x="25.05" y="23.38" class="f">|</text><text x="27.054" y="23.38" class="f">active</text><text x="34.068" y="23.38" class="f">|</text><text x="36.072" y="23.38" class="f">threads│──────────────────────│</text><text x="117.234" y="23.38" class="f">│</text><text x="119.238" y="23.38" class="f">│</text><text y="25.551" class="f">│w│</text><text x="5.01" y="25.551" class="f">Runtime</text><text x="13.026" y="25.551" class="f">API</text><text x="17.034" y="25.551" class="f">smoke</text><text x="23.046" y="25.551" class="f">|</text><text x="25.05" y="25.551" class="f">paused</text><text x="32.064" y="25.551" class="f">|</text><text x="34.068" y="25.551" class="f">threads=2│</text><text x="66.132" y="25.551" class="f">│</text><text x="117.234" y="25.551" class="f">│</text><text x="119.238" y="25.551" class="f">│</text><text y="27.722" class="f">│</text><text x="2.004" y="27.722" class="f">│</text><text x="43.086" y="27.722" class="f">│</text><text x="66.132" y="27.722" class="f">│</text><text x="117.234" y="27.722" class="f">│,│</text><text y="29.893" class="f">│K│</text><text x="43.086" y="29.893" class="f">│</text><text x="66.132" y="29.893" class="f">│</text><text x="117.234" y="29.893" class="f">│</text><text x="119.238" y="29.893" class="f">│</text><text y="32.064" class="f">│T│</text><text x="43.086" y="32.064" class="f">│</text><text x="66.132" y="32.064" class="f">│</text><text x="117.234" y="32.064" class="f">│</text><text x="119.238" y="32.064" class="f">│</text><text y="34.235" class="f">│i│</text><text x="43.086" y="34.235" class="f">│</text><text x="66.132" y="34.235" class="f">│</text><text x="117.234" y="34.235" class="f">│o│</text><text y="36.406" class="f">│:│</text><text x="43.086" y="36.406" class="f">│</text><text x="66.132" y="36.406" class="f">│</text><text x="117.234" y="36.406" class="f">│</text><text x="119.238" y="36.406" class="f">│</text><text y="38.577" class="f">│s│</text><text x="43.086" y="38.577" class="f">│</text><text x="66.132" y="38.577" class="f">│</text><text x="117.234" y="38.577" class="f">│m│</text><text y="40.748" class="f">│t│</text><text x="43.086" y="40.748" class="f">│</text><text x="66.132" y="40.748" class="f">│</text><text x="117.234" y="40.748" class="f">│</text><text x="119.238" y="40.748" class="f">│</text><text y="42.919" class="f">│!│</text><text x="43.086" y="42.919" class="f">│</text><text x="66.132" y="42.919" class="f">│</text><text x="117.234" y="42.919" class="f">│s│</text><text y="45.09" class="f">│c│</text><text x="43.086" y="45.09" class="f">│</text><text x="66.132" y="45.09" class="f">│</text><text x="117.234" y="45.09" class="f">│</text><text x="119.238" y="45.09" class="f">│</text><text y="47.261" class="f">│P│</text><text x="43.086" y="47.261" class="f">│</text><text x="66.132" y="47.261" class="f">│</text><text x="117.234" y="47.261" class="f">│</text><text x="119.238" y="47.261" class="f">│</text><text y="49.432" class="f">│q│</text><text x="43.086" y="49.432" class="f">│</text><text x="66.132" y="49.432" class="f">│</text><text x="117.234" y="49.432" class="f">│</text><text x="119.238" y="49.432" class="f">│</text><text y="51.603" class="f">│</text><text x="2.004" y="51.603" class="f">│</text><text x="26.052" y="51.603" class="f">┌Approval</text><text x="36.072" y="51.603" class="f">Modal────────────────────────────────────────────────────┐</text><text x="117.234" y="51.603" class="f">│</text><text x="119.238" y="51.603" class="f">│</text><text y="53.774" class="f">│</text><text x="2.004" y="53.774" class="f">│</text><text x="26.052" y="53.774" class="f">│</text><text x="51.102" y="53.774" class="f">No</text><text x="54.108" y="53.774" class="f">Pending</text><text x="62.124" y="53.774" class="f">Approval</text><text x="93.186" y="53.774" class="f">│</text><text x="117.234" y="53.774" class="f">│</text><text x="119.238" y="53.774" class="f">│</text><text y="55.945" class="f">│</text><text x="2.004" y="55.945" class="f">│</text><text x="26.052" y="55.945" class="f">│</text><text x="36.072" y="55.945" class="f">Runtime</text><text x="44.088" y="55.945" class="f">has</text><text x="48.096" y="55.945" class="f">no</text><text x="51.102" y="55.945" class="f">pending</text><text x="59.118" y="55.945" class="f">permission_request</text><text x="78.156" y="55.945" class="f">events.</text><text x="93.186" y="55.945" class="f">│</text><text x="117.234" y="55.945" class="f">│</text><text x="119.238" y="55.945" class="f">│</text><text y="58.116" class="f">│</text><text x="2.004" y="58.116" class="f">└───────────────────────│</text><text x="93.186" y="58.116" class="f">│</text><text x="117.234" y="58.116" class="f">│</text><text x="119.238" y="58.116" class="f">│</text><text y="60.287" class="f">│</text><text x="26.052" y="60.287" class="f">│</text><text x="55.11" y="60.287" class="f">[Esc]</text><text x="61.122" y="60.287" class="f">close</text><text x="93.186" y="60.287" class="f">│───────────────────────┘</text><text x="119.238" y="60.287" class="f">│</text><use xlink:href="#2" y="60.788"/><use xlink:href="#2" y="62.959"/><use xlink:href="#2" y="65.13"/><use xlink:href="#2" y="67.301"/><text y="71.142" class="f">└─────────────────────────│</text><text x="93.186" y="71.142" class="f">│─────────────────────────┘</text><text y="73.313" class="f">┌Command</text><text x="9.018" y="73.313" class="f">Bar──────────────└──────────────────────────────────────────────────────────────────┘─────────────────────────┐</text><text y="75.484" class="f">│Status:</text><text x="9.018" y="75.484" class="f">demo</text><text x="14.028" y="75.484" class="f">surfaces</text><text x="23.046" y="75.484" class="f">visible</text><text x="31.062" y="75.484" class="f">|</text><text x="33.066" y="75.484" class="f">Palette</text><text x="41.082" y="75.484" class="f">:</text><text x="43.086" y="75.484" class="f">Sessions</text><text x="52.104" y="75.484" class="f">s</text><text x="54.108" y="75.484" class="f">Threads</text><text x="62.124" y="75.484" class="f">t</text><text x="64.128" y="75.484" class="f">Approval</text><text x="73.146" y="75.484" class="f">!</text><text x="75.15" y="75.484" class="f">Cancel</text><text x="82.164" y="75.484" class="f">c</text><text x="119.238" y="75.484" class="f">│</text><use xlink:href="#1" y="75.985"/></svg></svg></g></svg></svg>