<svg xmlns="http://www.w3.org/2000/svg" xmlns:xlink="http://www.w3.org/1999/xlink" width="1260" height="841.56"><rect width="1260" height="841.56" rx="5" ry="5" class="a"/><svg y="0%" x="0%"><circle cx="20" cy="20" r="6" fill="#ff5f58"/><circle cx="40" cy="20" r="6" fill="#ffbd2e"/><circle cx="60" cy="20" r="6" fill="#18c132"/></svg><svg height="781.56" viewBox="0 0 122 78.156" width="1220" x="15" xmlns="http://www.w3.org/2000/svg" xmlns:xlink="http://www.w3.org/1999/xlink" y="50"><style>@keyframes h{0%{transform:translateX(0)}8.7%{transform:translateX(-122px)}11.3%{transform:translateX(-244px)}13.9%{transform:translateX(-366px)}16.5%{transform:translateX(-488px)}19.1%{transform:translateX(-610px)}21.7%{transform:translateX(-732px)}24.3%{transform:translateX(-854px)}26.9%{transform:translateX(-976px)}29.5%{transform:translateX(-1098px)}32.1%{transform:translateX(-1220px)}34.7%{transform:translateX(-1342px)}37.3%{transform:translateX(-1464px)}39.9%{transform:translateX(-1586px)}42.5%{transform:translateX(-1708px)}45.1%{transform:translateX(-1830px)}47.7%{transform:translateX(-1952px)}50.3%{transform:translateX(-2074px)}53%{transform:translateX(-2196px)}55.6%{transform:translateX(-2318px)}58.2%{transform:translateX(-2440px)}60.8%{transform:translateX(-2562px)}63.4%{transform:translateX(-2684px)}66%{transform:translateX(-2806px)}68.6%{transform:translateX(-2928px)}71.2%{transform:translateX(-3050px)}73.8%{transform:translateX(-3172px)}76.5%{transform:translateX(-3294px)}79.1%{transform:translateX(-3416px)}81.7%{transform:translateX(-3538px)}84.3%{transform:translateX(-3660px)}86.9%{transform:translateX(-3782px)}89.5%{transform:translateX(-3904px)}92.1%{transform:translateX(-4026px)}94.7%{transform:translateX(-4148px)}97.4%{transform:translateX(-4270px)}to{transform:translateX(-4392px)}}.a{fill:#282d35}.f{fill:#b9c0cb;white-space:pre}</style><g font-family="Monaco,Consolas,Menlo,'Bitstream Vera Sans Mono','Powerline Symbols',monospace" font-size="1.67"><defs><symbol id="1"><text y="1.67" class="f">┌DeepSeekCode</text><text x="14.028" y="1.67" class="f">TUI──────────────────────────────────────────────────────────────────────────────────────────────────────┐</text></symbol><symbol id="2"><text y="1.67" class="f">│</text><text x="2.004" y="1.67" class="f">Plan</text><text x="7.014" y="1.67" class="f">│</text><text x="9.018" y="1.67" class="f">Agent</text><text x="15.03" y="1.67" class="f">│</text><text x="17.034" y="1.67" class="f">YOLO</text><text x="119.238" y="1.67" class="f">│</text></symbol><symbol id="3"><text y="1.67" class="f">└──────────────────────────────────────────────────────────────────────────────────────────────────────────────────────┘</text></symbol><symbol id="4"><text y="1.67" class="f">┌Sidebar──────────────┌Command</text><text x="31.062" y="1.67" class="f">Palette───────────────────────────────────────────────────────────┐sks──────────────────┐</text></symbol><symbol id="5"><text y="1.67" class="f">│Mode:</text><text x="7.014" y="1.67" class="f">Plan</text><text x="22.044" y="1.67" class="f">│Command</text><text x="31.062" y="1.67" class="f">Palette</text><text x="97.194" y="1.67" class="f">│read:</text><text x="104.208" y="1.67" class="f">Close</text><text x="110.22" y="1.67" class="f">TUI</text><text x="114.228" y="1.67" class="f">parit│</text></symbol><symbol id="6"><text y="1.67" class="f">│Theme:</text><text x="8.016" y="1.67" class="f">Dark</text><text x="22.044" y="1.67" class="f">│Examples:</text><text x="33.066" y="1.67" class="f">mode</text><text x="38.076" y="1.67" class="f">agent</text><text x="44.088" y="1.67" class="f">|</text><text x="46.092" y="1.67" class="f">task</text><text x="51.102" y="1.67" class="f">pause</text><text x="57.114" y="1.67" class="f">|</text><text x="59.118" y="1.67" class="f">shell</text><text x="65.13" y="1.67" class="f">cargo</text><text x="71.142" y="1.67" class="f">test</text><text x="76.152" y="1.67" class="f">|</text><text x="78.156" y="1.67" class="f">revert</text><text x="85.17" y="1.67" class="f">turn</text><text x="90.18" y="1.67" class="f">last</text><text x="97.194" y="1.67" class="f">│de/status:</text><text x="109.218" y="1.67" class="f">agent</text><text x="115.23" y="1.67" class="f">/</text><text x="117.234" y="1.67" class="f">ac│</text></symbol><symbol id="7"><text y="1.67" class="f">│Translate:</text><text x="12.024" y="1.67" class="f">off</text><text x="22.044" y="1.67" class="f">│</text><text x="97.194" y="1.67" class="f">│tems:</text><text x="104.208" y="1.67" class="f">1</text><text x="119.238" y="1.67" class="f">│</text></symbol><symbol id="8"><text y="1.67" class="f">│</text><text x="22.044" y="1.67" class="f">│&gt;</text><text x="25.05" y="1.67" class="f">mode</text><text x="30.06" y="1.67" class="f">agent|</text><text x="97.194" y="1.67" class="f">│</text><text x="99.198" y="1.67" class="f">replay:</text><text x="107.214" y="1.67" class="f">latest</text><text x="114.228" y="1.67" class="f">3</text><text x="119.238" y="1.67" class="f">│</text></symbol><symbol id="9"><text y="1.67" class="f">│Runtime</text><text x="9.018" y="1.67" class="f">session</text><text x="22.044" y="1.67" class="f">│</text><text x="66.132" y="1.67" class="f">┌Thread</text><text x="74.148" y="1.67" class="f">Navigator──────────────────────────────────┐</text><text x="119.238" y="1.67" class="f">│</text></symbol><symbol id="10"><text y="1.67" class="f">│t┌Session</text><text x="11.022" y="1.67" class="f">Picker──────────────────────────┐</text><text x="66.132" y="1.67" class="f">│&gt;</text><text x="69.138" y="1.67" class="f">Close</text><text x="75.15" y="1.67" class="f">TUI</text><text x="79.158" y="1.67" class="f">parity</text><text x="86.172" y="1.67" class="f">|</text><text x="88.176" y="1.67" class="f">active</text><text x="95.19" y="1.67" class="f">|</text><text x="97.194" y="1.67" class="f">seq=12</text><text x="117.234" y="1.67" class="f">│</text><text x="119.238" y="1.67" class="f">│</text></symbol><symbol id="11"><text y="1.67" class="f">│i│&gt;</text><text x="5.01" y="1.67" class="f">Plan</text><text x="10.02" y="1.67" class="f">product</text><text x="18.036" y="1.67" class="f">parity</text><text x="25.05" y="1.67" class="f">|</text><text x="27.054" y="1.67" class="f">active</text><text x="34.068" y="1.67" class="f">|</text><text x="36.072" y="1.67" class="f">threads│──────────────────────│</text><text x="117.234" y="1.67" class="f">│</text><text x="119.238" y="1.67" class="f">│</text></symbol><symbol id="12"><text y="1.67" class="f">│s│</text><text x="5.01" y="1.67" class="f">Runtime</text><text x="13.026" y="1.67" class="f">API</text><text x="17.034" y="1.67" class="f">smoke</text><text x="23.046" y="1.67" class="f">|</text><text x="25.05" y="1.67" class="f">paused</text><text x="32.064" y="1.67" class="f">|</text><text x="34.068" y="1.67" class="f">threads=2│</text><text x="66.132" y="1.67" class="f">│</text><text x="117.234" y="1.67" class="f">│</text><text x="119.238" y="1.67" class="f">│</text></symbol><symbol id="13"><text y="1.67" class="f">│t│</text><text x="43.086" y="1.67" class="f">│</text><text x="66.132" y="1.67" class="f">│</text><text x="117.234" y="1.67" class="f">│,│</text></symbol><symbol id="14"><text y="1.67" class="f">│w│</text><text x="43.086" y="1.67" class="f">│</text><text x="66.132" y="1.67" class="f">│</text><text x="117.234" y="1.67" class="f">│</text><text x="119.238" y="1.67" class="f">│</text></symbol><symbol id="15"><text y="1.67" class="f">│</text><text x="2.004" y="1.67" class="f">│</text><text x="43.086" y="1.67" class="f">│</text><text x="66.132" y="1.67" class="f">│</text><text x="117.234" y="1.67" class="f">│</text><text x="119.238" y="1.67" class="f">│</text></symbol><symbol id="16"><text y="1.67" class="f">│K│</text><text x="43.086" y="1.67" class="f">│</text><text x="66.132" y="1.67" class="f">│</text><text x="117.234" y="1.67" class="f">│o│</text></symbol><symbol id="17"><text y="1.67" class="f">│T│</text><text x="43.086" y="1.67" class="f">│</text><text x="66.132" y="1.67" class="f">│</text><text x="117.234" y="1.67" class="f">│</text><text x="119.238" y="1.67" class="f">│</text></symbol><symbol id="18"><text y="1.67" class="f">│i│</text><text x="43.086" y="1.67" class="f">│</text><text x="66.132" y="1.67" class="f">│</text><text x="117.234" y="1.67" class="f">│m│</text></symbol><symbol id="19"><text y="1.67" class="f">│:│</text><text x="43.086" y="1.67" class="f">│</text><text x="66.132" y="1.67" class="f">│</text><text x="117.234" y="1.67" class="f">│</text><text x="119.238" y="1.67" class="f">│</text></symbol><symbol id="20"><text y="1.67" class="f">│s│</text><text x="43.086" y="1.67" class="f">│</text><text x="66.132" y="1.67" class="f">│</text><text x="117.234" y="1.67" class="f">│s│</text></symbol><symbol id="21"><text y="1.67" class="f">│t│</text><text x="43.086" y="1.67" class="f">│</text><text x="66.132" y="1.67" class="f">│</text><text x="117.234" y="1.67" class="f">│</text><text x="119.238" y="1.67" class="f">│</text></symbol><symbol id="22"><text y="1.67" class="f">│!│</text><text x="43.086" y="1.67" class="f">│</text><text x="66.132" y="1.67" class="f">│</text><text x="117.234" y="1.67" class="f">│</text><text x="119.238" y="1.67" class="f">│</text></symbol><symbol id="23"><text y="1.67" class="f">│c│</text><text x="24.048" y="1.67" class="f">┌Approval</text><text x="34.068" y="1.67" class="f">Modal────────────────────────────────────────────────────────┐</text><text x="117.234" y="1.67" class="f">│</text><text x="119.238" y="1.67" class="f">│</text></symbol><symbol id="24"><text y="1.67" class="f">│P│</text><text x="24.048" y="1.67" class="f">│</text><text x="51.102" y="1.67" class="f">No</text><text x="54.108" y="1.67" class="f">Pending</text><text x="62.124" y="1.67" class="f">Approval</text><text x="95.19" y="1.67" class="f">│</text><text x="117.234" y="1.67" class="f">│</text><text x="119.238" y="1.67" class="f">│</text></symbol><symbol id="25"><text y="1.67" class="f">│q│</text><text x="24.048" y="1.67" class="f">│</text><text x="36.072" y="1.67" class="f">Runtime</text><text x="44.088" y="1.67" class="f">has</text><text x="48.096" y="1.67" class="f">no</text><text x="51.102" y="1.67" class="f">pending</text><text x="59.118" y="1.67" class="f">permission_request</text><text x="78.156" y="1.67" class="f">events.</text><text x="95.19" y="1.67" class="f">│</text><text x="117.234" y="1.67" class="f">│</text><text x="119.238" y="1.67" class="f">│</text></symbol><symbol id="26"><text y="1.67" class="f">│</text><text x="2.004" y="1.67" class="f">│</text><text x="24.048" y="1.67" class="f">│</text><text x="95.19" y="1.67" class="f">│</text><text x="117.234" y="1.67" class="f">│</text><text x="119.238" y="1.67" class="f">│</text></symbol><symbol id="27"><text y="1.67" class="f">│</text><text x="2.004" y="1.67" class="f">└─────────────────────│</text><text x="55.11" y="1.67" class="f">[Esc]</text><text x="61.122" y="1.67" class="f">close</text><text x="95.19" y="1.67" class="f">│</text><text x="117.234" y="1.67" class="f">│</text><text x="119.238" y="1.67" class="f">│</text></symbol><symbol id="28"><text y="1.67" class="f">│</text><text x="24.048" y="1.67" class="f">│</text><text x="95.19" y="1.67" class="f">│─────────────────────┘</text><text x="119.238" y="1.67" class="f">│</text></symbol><symbol id="29"><text y="1.67" class="f">│</text><text x="24.048" y="1.67" class="f">│</text><text x="95.19" y="1.67" class="f">│</text><text x="119.238" y="1.67" class="f">│</text></symbol><symbol id="30"><text y="1.67" class="f">└───────────────────────│</text><text x="95.19" y="1.67" class="f">│───────────────────────┘</text></symbol><symbol id="31"><text y="1.67" class="f">┌Command</text><text x="9.018" y="1.67" class="f">Bar────────────└──────────────────────────────────────────────────────────────────────┘───────────────────────┐</text></symbol><symbol id="32"><text y="1.67" class="f">│Status:</text><text x="9.018" y="1.67" class="f">demo</text><text x="14.028" y="1.67" class="f">surfaces</text><text x="23.046" y="1.67" class="f">visible</text><text x="31.062" y="1.67" class="f">|</text><text x="33.066" y="1.67" class="f">Palette</text><text x="41.082" y="1.67" class="f">:</text><text x="43.086" y="1.67" class="f">Sessions</text><text x="52.104" y="1.67" class="f">s</text><text x="54.108" y="1.67" class="f">Threads</text><text x="62.124" y="1.67" class="f">t</text><text x="64.128" y="1.67" class="f">Approval</text><text x="73.146" y="1.67" class="f">!</text><text x="75.15" y="1.67" class="f">Cancel</text><text x="82.164" y="1.67" class="f">c</text><text x="119.238" y="1.67" class="f">│</text></symbol><symbol id="a"><path fill="transparent" d="M0 0h122v37H0z"/></symbol></defs><path class="a" d="M0 0h122v78.156H0z"/><g style="animation-duration:3.203725s;animation-iteration-count:infinite;animation-name:h;animation-timing-function:steps(1,end)"><svg width="4514"><svg><use xlink:href="#a"/></svg><svg x="122"><use xlink:href="#a"/><use xlink:href="#1"/></svg><svg x="244"><use xlink:href="#a"/><use xlink:href="#1"/><use xlink:href="#2" y="2.171"/></svg><svg x="366"><use xlink:href="#a"/><use xlink:href="#1"/><use xlink:href="#2" y="2.171"/><use xlink:href="#3" y="4.342"/></svg><svg x="488"><use xlink:href="#a"/><use xlink:href="#1"/><use xlink:href="#2" y="2.171"/><use xlink:href="#3" y="4.342"/><use xlink:href="#4" y="6.513"/></svg><svg x="610"><use xlink:href="#a"/><use xlink:href="#1"/><use xlink:href="#2" y="2.171"/><use xlink:href="#3" y="4.342"/><use xlink:href="#4" y="6.513"/><use xlink:href="#5" y="8.684"/></svg><svg x="732"><use xlink:href="#a"/><use xlink:href="#1"/><use xlink:href="#2" y="2.171"/><use xlink:href="#3" y="4.342"/><use xlink:href="#4" y="6.513"/><use xlink:href="#5" y="8.684"/><use xlink:href="#6" y="10.855"/></svg><svg x="854"><use xlink:href="#a"/><use xlink:href="#1"/><use xlink:href="#2" y="2.171"/><use xlink:href="#3" y="4.342"/><use xlink:href="#4" y="6.513"/><use xlink:href="#5" y="8.684"/><use xlink:href="#6" y="10.855"/><use xlink:href="#7" y="13.026"/></svg><svg x="976"><use xlink:href="#a"/><use xlink:href="#1"/><use xlink:href="#2" y="2.171"/><use xlink:href="#3" y="4.342"/><use xlink:href="#4" y="6.513"/><use xlink:href="#5" y="8.684"/><use xlink:href="#6" y="10.855"/><use xlink:href="#7" y="13.026"/><use xlink:href="#8" y="15.197"/></svg><svg x="1098"><use xlink:href="#a"/><use xlink:href="#1"/><use xlink:href="#2" y="2.171"/><use xlink:href="#3" y="4.342"/><use xlink:href="#4" y="6.513"/><use xlink:href="#5" y="8.684"/><use xlink:href="#6" y="10.855"/><use xlink:href="#7" y="13.026"/><use xlink:href="#8" y="15.197"/><use xlink:href="#9" y="17.368"/></svg><svg x="1220"><use xlink:href="#a"/><use xlink:href="#1"/><use xlink:href="#2" y="2.171"/><use xlink:href="#3" y="4.342"/><use xlink:href="#4" y="6.513"/><use xlink:href="#5" y="8.684"/><use xlink:href="#6" y="10.855"/><use xlink:href="#7" y="13.026"/><use xlink:href="#8" y="15.197"/><use xlink:href="#9" y="17.368"/><use xlink:href="#10" y="19.539"/></svg><svg x="1342"><use xlink:href="#a"/><use xlink:href="#1"/><use xlink:href="#2" y="2.171"/><use xlink:href="#3" y="4.342"/><use xlink:href="#4" y="6.513"/><use xlink:href="#5" y="8.684"/><use xlink:href="#6" y="10.855"/><use xlink:href="#7" y="13.026"/><use xlink:href="#8" y="15.197"/><use xlink:href="#9" y="17.368"/><use xlink:href="#10" y="19.539"/><use xlink:href="#11" y="21.71"/></svg><svg x="1464"><use xlink:href="#a"/><use xlink:href="#1"/><use xlink:href="#2" y="2.171"/><use xlink:href="#3" y="4.342"/><use xlink:href="#4" y="6.513"/><use xlink:href="#5" y="8.684"/><use xlink:href="#6" y="10.855"/><use xlink:href="#7" y="13.026"/><use xlink:href="#8" y="15.197"/><use xlink:href="#9" y="17.368"/><use xlink:href="#10" y="19.539"/><use xlink:href="#11" y="21.71"/><use xlink:href="#12" y="23.881"/></svg><svg x="1586"><use xlink:href="#a"/><use xlink:href="#1"/><use xlink:href="#2" y="2.171"/><use xlink:href="#3" y="4.342"/><use xlink:href="#4" y="6.513"/><use xlink:href="#5" y="8.684"/><use xlink:href="#6" y="10.855"/><use xlink:href="#7" y="13.026"/><use xlink:href="#8" y="15.197"/><use xlink:href="#9" y="17.368"/><use xlink:href="#10" y="19.539"/><use xlink:href="#11" y="21.71"/><use xlink:href="#12" y="23.881"/><use xlink:href="#13" y="26.052"/></svg><svg x="1708"><use xlink:href="#a"/><use xlink:href="#1"/><use xlink:href="#2" y="2.171"/><use xlink:href="#3" y="4.342"/><use xlink:href="#4" y="6.513"/><use xlink:href="#5" y="8.684"/><use xlink:href="#6" y="10.855"/><use xlink:href="#7" y="13.026"/><use xlink:href="#8" y="15.197"/><use xlink:href="#9" y="17.368"/><use xlink:href="#10" y="19.539"/><use xlink:href="#11" y="21.71"/><use xlink:href="#12" y="23.881"/><use xlink:href="#13" y="26.052"/><use xlink:href="#14" y="28.223"/></svg><svg x="1830"><use xlink:href="#a"/><use xlink:href="#1"/><use xlink:href="#2" y="2.171"/><use xlink:href="#3" y="4.342"/><use xlink:href="#4" y="6.513"/><use xlink:href="#5" y="8.684"/><use xlink:href="#6" y="10.855"/><use xlink:href="#7" y="13.026"/><use xlink:href="#8" y="15.197"/><use xlink:href="#9" y="17.368"/><use xlink:href="#10" y="19.539"/><use xlink:href="#11" y="21.71"/><use xlink:href="#12" y="23.881"/><use xlink:href="#13" y="26.052"/><use xlink:href="#14" y="28.223"/><use xlink:href="#15" y="30.394"/></svg><svg x="1952"><use xlink:href="#a"/><use xlink:href="#1"/><use xlink:href="#2" y="2.171"/><use xlink:href="#3" y="4.342"/><use xlink:href="#4" y="6.513"/><use xlink:href="#5" y="8.684"/><use xlink:href="#6" y="10.855"/><use xlink:href="#7" y="13.026"/><use xlink:href="#8" y="15.197"/><use xlink:href="#9" y="17.368"/><use xlink:href="#10" y="19.539"/><use xlink:href="#11" y="21.71"/><use xlink:href="#12" y="23.881"/><use xlink:href="#13" y="26.052"/><use xlink:href="#14" y="28.223"/><use xlink:href="#15" y="30.394"/><use xlink:href="#16" y="32.565"/></svg><svg x="2074"><use xlink:href="#a"/><use xlink:href="#1"/><use xlink:href="#2" y="2.171"/><use xlink:href="#3" y="4.342"/><use xlink:href="#4" y="6.513"/><use xlink:href="#5" y="8.684"/><use xlink:href="#6" y="10.855"/><use xlink:href="#7" y="13.026"/><use xlink:href="#8" y="15.197"/><use xlink:href="#9" y="17.368"/><use xlink:href="#10" y="19.539"/><use xlink:href="#11" y="21.71"/><use xlink:href="#12" y="23.881"/><use xlink:href="#13" y="26.052"/><use xlink:href="#14" y="28.223"/><use xlink:href="#15" y="30.394"/><use xlink:href="#16" y="32.565"/><use xlink:href="#17" y="34.736"/></svg><svg x="2196"><use xlink:href="#a"/><use xlink:href="#1"/><use xlink:href="#2" y="2.171"/><use xlink:href="#3" y="4.342"/><use xlink:href="#4" y="6.513"/><use xlink:href="#5" y="8.684"/><use xlink:href="#6" y="10.855"/><use xlink:href="#7" y="13.026"/><use xlink:href="#8" y="15.197"/><use xlink:href="#9" y="17.368"/><use xlink:href="#10" y="19.539"/><use xlink:href="#11" y="21.71"/><use xlink:href="#12" y="23.881"/><use xlink:href="#13" y="26.052"/><use xlink:href="#14" y="28.223"/><use xlink:href="#15" y="30.394"/><use xlink:href="#16" y="32.565"/><use xlink:href="#17" y="34.736"/><use xlink:href="#18" y="36.907"/></svg><svg x="2318"><use xlink:href="#a"/><use xlink:href="#1"/><use xlink:href="#2" y="2.171"/><use xlink:href="#3" y="4.342"/><use xlink:href="#4" y="6.513"/><use xlink:href="#5" y="8.684"/><use xlink:href="#6" y="10.855"/><use xlink:href="#7" y="13.026"/><use xlink:href="#8" y="15.197"/><use xlink:href="#9" y="17.368"/><use xlink:href="#10" y="19.539"/><use xlink:href="#11" y="21.71"/><use xlink:href="#12" y="23.881"/><use xlink:href="#13" y="26.052"/><use xlink:href="#14" y="28.223"/><use xlink:href="#15" y="30.394"/><use xlink:href="#16" y="32.565"/><use xlink:href="#17" y="34.736"/><use xlink:href="#18" y="36.907"/><use xlink:href="#19" y="39.078"/></svg><svg x="2440"><use xlink:href="#a"/><use xlink:href="#1"/><use xlink:href="#2" y="2.171"/><use xlink:href="#3" y="4.342"/><use xlink:href="#4" y="6.513"/><use xlink:href="#5" y="8.684"/><use xlink:href="#6" y="10.855"/><use xlink:href="#7" y="13.026"/><use xlink:href="#8" y="15.197"/><use xlink:href="#9" y="17.368"/><use xlink:href="#10" y="19.539"/><use xlink:href="#11" y="21.71"/><use xlink:href="#12" y="23.881"/><use xlink:href="#13" y="26.052"/><use xlink:href="#14" y="28.223"/><use xlink:href="#15" y="30.394"/><use xlink:href="#16" y="32.565"/><use xlink:href="#17" y="34.736"/><use xlink:href="#18" y="36.907"/><use xlink:href="#19" y="39.078"/><use xlink:href="#20" y="41.249"/></svg><svg x="2562"><use xlink:href="#a"/><use xlink:href="#1"/><use xlink:href="#2" y="2.171"/><use xlink:href="#3" y="4.342"/><use xlink:href="#4" y="6.513"/><use xlink:href="#5" y="8.684"/><use xlink:href="#6" y="10.855"/><use xlink:href="#7" y="13.026"/><use xlink:href="#8" y="15.197"/><use xlink:href="#9" y="17.368"/><use xlink:href="#10" y="19.539"/><use xlink:href="#11" y="21.71"/><use xlink:href="#12" y="23.881"/><use xlink:href="#13" y="26.052"/><use xlink:href="#14" y="28.223"/><use xlink:href="#15" y="30.394"/><use xlink:href="#16" y="32.565"/><use xlink:href="#17" y="34.736"/><use xlink:href="#18" y="36.907"/><use xlink:href="#19" y="39.078"/><use xlink:href="#20" y="41.249"/><use xlink:href="#21" y="43.42"/></svg><svg x="2684"><use xlink:href="#a"/><use xlink:href="#1"/><use xlink:href="#2" y="2.171"/><use xlink:href="#3" y="4.342"/><use xlink:href="#4" y="6.513"/><use xlink:href="#5" y="8.684"/><use xlink:href="#6" y="10.855"/><use xlink:href="#7" y="13.026"/><use xlink:href="#8" y="15.197"/><use xlink:href="#9" y="17.368"/><use xlink:href="#10" y="19.539"/><use xlink:href="#11" y="21.71"/><use xlink:href="#12" y="23.881"/><use xlink:href="#13" y="26.052"/><use xlink:href="#14" y="28.223"/><use xlink:href="#15" y="30.394"/><use xlink:href="#16" y="32.565"/><use xlink:href="#17" y="34.736"/><use xlink:href="#18" y="36.907"/><use xlink:href="#19" y="39.078"/><use xlink:href="#20" y="41.249"/><use xlink:href="#21" y="43.42"/><use xlink:href="#22" y="45.591"/></svg><svg x="2806"><use xlink:href="#a"/><use xlink:href="#1"/><use xlink:href="#2" y="2.171"/><use xlink:href="#3" y="4.342"/><use xlink:href="#4" y="6.513"/><use xlink:href="#5" y="8.684"/><use xlink:href="#6" y="10.855"/><use xlink:href="#7" y="13.026"/><use xlink:href="#8" y="15.197"/><use xlink:href="#9" y="17.368"/><use xlink:href="#10" y="19.539"/><use xlink:href="#11" y="21.71"/><use xlink:href="#12" y="23.881"/><use xlink:href="#13" y="26.052"/><use xlink:href="#14" y="28.223"/><use xlink:href="#15" y="30.394"/><use xlink:href="#16" y="32.565"/><use xlink:href="#17" y="34.736"/><use xlink:href="#18" y="36.907"/><use xlink:href="#19" y="39.078"/><use xlink:href="#20" y="41.249"/><use xlink:href="#21" y="43.42"/><use xlink:href="#22" y="45.591"/><use xlink:href="#23" y="47.762"/></svg><svg x="2928"><use xlink:href="#a"/><use xlink:href="#1"/><use xlink:href="#2" y="2.171"/><use xlink:href="#3" y="4.342"/><use xlink:href="#4" y="6.513"/><use xlink:href="#5" y="8.684"/><use xlink:href="#6" y="10.855"/><use xlink:href="#7" y="13.026"/><use xlink:href="#8" y="15.197"/><use xlink:href="#9" y="17.368"/><use xlink:href="#10" y="19.539"/><use xlink:href="#11" y="21.71"/><use xlink:href="#12" y="23.881"/><use xlink:href="#13" y="26.052"/><use xlink:href="#14" y="28.223"/><use xlink:href="#15" y="30.394"/><use xlink:href="#16" y="32.565"/><use xlink:href="#17" y="34.736"/><use xlink:href="#18" y="36.907"/><use xlink:href="#19" y="39.078"/><use xlink:href="#20" y="41.249"/><use xlink:href="#21" y="43.42"/><use xlink:href="#22" y="45.591"/><use xlink:href="#23" y="47.762"/><use xlink:href="#24" y="49.933"/></svg><svg x="3050"><use xlink:href="#a"/><use xlink:href="#1"/><use xlink:href="#2" y="2.171"/><use xlink:href="#3" y="4.342"/><use xlink:href="#4" y="6.513"/><use xlink:href="#5" y="8.684"/><use xlink:href="#6" y="10.855"/><use xlink:href="#7" y="13.026"/><use xlink:href="#8" y="15.197"/><use xlink:href="#9" y="17.368"/><use xlink:href="#10" y="19.539"/><use xlink:href="#11" y="21.71"/><use xlink:href="#12" y="23.881"/><use xlink:href="#13" y="26.052"/><use xlink:href="#14" y="28.223"/><use xlink:href="#15" y="30.394"/><use xlink:href="#16" y="32.565"/><use xlink:href="#17" y="34.736"/><use xlink:href="#18" y="36.907"/><use xlink:href="#19" y="39.078"/><use xlink:href="#20" y="41.249"/><use xlink:href="#21" y="43.42"/><use xlink:href="#22" y="45.591"/><use xlink:href="#23" y="47.762"/><use xlink:href="#24" y="49.933"/><use xlink:href="#25" y="52.104"/></svg><svg x="3172"><use xlink:href="#a"/><use xlink:href="#1"/><use xlink:href="#2" y="2.171"/><use xlink:href="#3" y="4.342"/><use xlink:href="#4" y="6.513"/><use xlink:href="#5" y="8.684"/><use xlink:href="#6" y="10.855"/><use xlink:href="#7" y="13.026"/><use xlink:href="#8" y="15.197"/><use xlink:href="#9" y="17.368"/><use xlink:href="#10" y="19.539"/><use xlink:href="#11" y="21.71"/><use xlink:href="#12" y="23.881"/><use xlink:href="#13" y="26.052"/><use xlink:href="#14" y="28.223"/><use xlink:href="#15" y="30.394"/><use xlink:href="#16" y="32.565"/><use xlink:href="#17" y="34.736"/><use xlink:href="#18" y="36.907"/><use xlink:href="#19" y="39.078"/><use xlink:href="#20" y="41.249"/><use xlink:href="#21" y="43.42"/><use xlink:href="#22" y="45.591"/><use xlink:href="#23" y="47.762"/><use xlink:href="#24" y="49.933"/><use xlink:href="#25" y="52.104"/><use xlink:href="#26" y="54.275"/></svg><svg x="3294"><use xlink:href="#a"/><use xlink:href="#1"/><use xlink:href="#2" y="2.171"/><use xlink:href="#3" y="4.342"/><use xlink:href="#4" y="6.513"/><use xlink:href="#5" y="8.684"/><use xlink:href="#6" y="10.855"/><use xlink:href="#7" y="13.026"/><use xlink:href="#8" y="15.197"/><use xlink:href="#9" y="17.368"/><use xlink:href="#10" y="19.539"/><use xlink:href="#11" y="21.71"/><use xlink:href="#12" y="23.881"/><use xlink:href="#13" y="26.052"/><use xlink:href="#14" y="28.223"/><use xlink:href="#15" y="30.394"/><use xlink:href="#16" y="32.565"/><use xlink:href="#17" y="34.736"/><use xlink:href="#18" y="36.907"/><use xlink:href="#19" y="39.078"/><use xlink:href="#20" y="41.249"/><use xlink:href="#21" y="43.42"/><use xlink:href="#22" y="45.591"/><use xlink:href="#23" y="47.762"/><use xlink:href="#24" y="49.933"/><use xlink:href="#25" y="52.104"/><use xlink:href="#26" y="54.275"/><use xlink:href="#27" y="56.446"/></svg><svg x="3416"><use xlink:href="#a"/><use xlink:href="#1"/><use xlink:href="#2" y="2.171"/><use xlink:href="#3" y="4.342"/><use xlink:href="#4" y="6.513"/><use xlink:href="#5" y="8.684"/><use xlink:href="#6" y="10.855"/><use xlink:href="#7" y="13.026"/><use xlink:href="#8" y="15.197"/><use xlink:href="#9" y="17.368"/><use xlink:href="#10" y="19.539"/><use xlink:href="#11" y="21.71"/><use xlink:href="#12" y="23.881"/><use xlink:href="#13" y="26.052"/><use xlink:href="#14" y="28.223"/><use xlink:href="#15" y="30.394"/><use xlink:href="#16" y="32.565"/><use xlink:href="#17" y="34.736"/><use xlink:href="#18" y="36.907"/><use xlink:href="#19" y="39.078"/><use xlink:href="#20" y="41.249"/><use xlink:href="#21" y="43.42"/><use xlink:href="#22" y="45.591"/><use xlink:href="#23" y="47.762"/><use xlink:href="#24" y="49.933"/><use xlink:href="#25" y="52.104"/><use xlink:href="#26" y="54.275"/><use xlink:href="#27" y="56.446"/><use xlink:href="#28" y="58.617"/></svg><svg x="3538"><use xlink:href="#a"/><use xlink:href="#1"/><use xlink:href="#2" y="2.171"/><use xlink:href="#3" y="4.342"/><use xlink:href="#4" y="6.513"/><use xlink:href="#5" y="8.684"/><use xlink:href="#6" y="10.855"/><use xlink:href="#7" y="13.026"/><use xlink:href="#8" y="15.197"/><use xlink:href="#9" y="17.368"/><use xlink:href="#10" y="19.539"/><use xlink:href="#11" y="21.71"/><use xlink:href="#12" y="23.881"/><use xlink:href="#13" y="26.052"/><use xlink:href="#14" y="28.223"/><use xlink:href="#15" y="30.394"/><use xlink:href="#16" y="32.565"/><use xlink:href="#17" y="34.736"/><use xlink:href="#18" y="36.907"/><use xlink:href="#19" y="39.078"/><use xlink:href="#20" y="41.249"/><use xlink:href="#21" y="43.42"/><use xlink:href="#22" y="45.591"/><use xlink:href="#23" y="47.762"/><use xlink:href="#24" y="49.933"/><use xlink:href="#25" y="52.104"/><use xlink:href="#26" y="54.275"/><use xlink:href="#27" y="56.446"/><use xlink:href="#28" y="58.617"/><use xlink:href="#29" y="60.788"/></svg><svg x="3660"><use xlink:href="#a"/><use xlink:href="#1"/><use xlink:href="#2" y="2.171"/><use xlink:href="#3" y="4.342"/><use xlink:href="#4" y="6.513"/><use xlink:href="#5" y="8.684"/><use xlink:href="#6" y="10.855"/><use xlink:href="#7" y="13.026"/><use xlink:href="#8" y="15.197"/><use xlink:href="#9" y="17.368"/><use xlink:href="#10" y="19.539"/><use xlink:href="#11" y="21.71"/><use xlink:href="#12" y="23.881"/><use xlink:href="#13" y="26.052"/><use xlink:href="#14" y="28.223"/><use xlink:href="#15" y="30.394"/><use xlink:href="#16" y="32.565"/><use xlink:href="#17" y="34.736"/><use xlink:href="#18" y="36.907"/><use xlink:href="#19" y="39.078"/><use xlink:href="#20" y="41.249"/><use xlink:href="#21" y="43.42"/><use xlink:href="#22" y="45.591"/><use xlink:href="#23" y="47.762"/><use xlink:href="#24" y="49.933"/><use xlink:href="#25" y="52.104"/><use xlink:href="#26" y="54.275"/><use xlink:href="#27" y="56.446"/><use xlink:href="#28" y="58.617"/><use xlink:href="#29" y="60.788"/><use xlink:href="#29" y="62.959"/></svg><svg x="3782"><use xlink:href="#a"/><use xlink:href="#1"/><use xlink:href="#2" y="2.171"/><use xlink:href="#3" y="4.342"/><use xlink:href="#4" y="6.513"/><use xlink:href="#5" y="8.684"/><use xlink:href="#6" y="10.855"/><use xlink:href="#7" y="13.026"/><use xlink:href="#8" y="15.197"/><use xlink:href="#9" y="17.368"/><use xlink:href="#10" y="19.539"/><use xlink:href="#11" y="21.71"/><use xlink:href="#12" y="23.881"/><use xlink:href="#13" y="26.052"/><use xlink:href="#14" y="28.223"/><use xlink:href="#15" y="30.394"/><use xlink:href="#16" y="32.565"/><use xlink:href="#17" y="34.736"/><use xlink:href="#18" y="36.907"/><use xlink:href="#19" y="39.078"/><use xlink:href="#20" y="41.249"/><use xlink:href="#21" y="43.42"/><use xlink:href="#22" y="45.591"/><use xlink:href="#23" y="47.762"/><use xlink:href="#24" y="49.933"/><use xlink:href="#25" y="52.104"/><use xlink:href="#26" y="54.275"/><use xlink:href="#27" y="56.446"/><use xlink:href="#28" y="58.617"/><use xlink:href="#29" y="60.788"/><use xlink:href="#29" y="62.959"/><use xlink:href="#29" y="65.13"/></svg><svg x="3904"><use xlink:href="#a"/><use xlink:href="#1"/><use xlink:href="#2" y="2.171"/><use xlink:href="#3" y="4.342"/><use xlink:href="#4" y="6.513"/><use xlink:href="#5" y="8.684"/><use xlink:href="#6" y="10.855"/><use xlink:href="#7" y="13.026"/><use xlink:href="#8" y="15.197"/><use xlink:href="#9" y="17.368"/><use xlink:href="#10" y="19.539"/><use xlink:href="#11" y="21.71"/><use xlink:href="#12" y="23.881"/><use xlink:href="#13" y="26.052"/><use xlink:href="#14" y="28.223"/><use xlink:href="#15" y="30.394"/><use xlink:href="#16" y="32.565"/><use xlink:href="#17" y="34.736"/><use xlink:href="#18" y="36.907"/><use xlink:href="#19" y="39.078"/><use xlink:href="#20" y="41.249"/><use xlink:href="#21" y="43.42"/><use xlink:href="#22" y="45.591"/><use xlink:href="#23" y="47.762"/><use xlink:href="#24" y="49.933"/><use xlink:href="#25" y="52.104"/><use xlink:href="#26" y="54.275"/><use xlink:href="#27" y="56.446"/><use xlink:href="#28" y="58.617"/><use xlink:href="#29" y="60.788"/><use xlink:href="#29" y="62.959"/><use xlink:href="#29" y="65.13"/><use xlink:href="#29" y="67.301"/></svg><svg x="4026"><use xlink:href="#a"/><use xlink:href="#1"/><use xlink:href="#2" y="2.171"/><use xlink:href="#3" y="4.342"/><use xlink:href="#4" y="6.513"/><use xlink:href="#5" y="8.684"/><use xlink:href="#6" y="10.855"/><use xlink:href="#7" y="13.026"/><use xlink:href="#8" y="15.197"/><use xlink:href="#9" y="17.368"/><use xlink:href="#10" y="19.539"/><use xlink:href="#11" y="21.71"/><use xlink:href="#12" y="23.881"/><use xlink:href="#13" y="26.052"/><use xlink:href="#14" y="28.223"/><use xlink:href="#15" y="30.394"/><use xlink:href="#16" y="32.565"/><use xlink:href="#17" y="34.736"/><use xlink:href="#18" y="36.907"/><use xlink:href="#19" y="39.078"/><use xlink:href="#20" y="41.249"/><use xlink:href="#21" y="43.42"/><use xlink:href="#22" y="45.591"/><use xlink:href="#23" y="47.762"/><use xlink:href="#24" y="49.933"/><use xlink:href="#25" y="52.104"/><use xlink:href="#26" y="54.275"/><use xlink:href="#27" y="56.446"/><use xlink:href="#28" y="58.617"/><use xlink:href="#29" y="60.788"/><use xlink:href="#29" y="62.959"/><use xlink:href="#29" y="65.13"/><use xlink:href="#29" y="67.301"/><use xlink:href="#30" y="69.472"/></svg><svg x="4148"><use xlink:href="#a"/><use xlink:href="#1"/><use xlink:href="#2" y="2.171"/><use xlink:href="#3" y="4.342"/><use xlink:href="#4" y="6.513"/><use xlink:href="#5" y="8.684"/><use xlink:href="#6" y="10.855"/><use xlink:href="#7" y="13.026"/><use xlink:href="#8" y="15.197"/><use xlink:href="#9" y="17.368"/><use xlink:href="#10" y="19.539"/><use xlink:href="#11" y="21.71"/><use xlink:href="#12" y="23.881"/><use xlink:href="#13" y="26.052"/><use xlink:href="#14" y="28.223"/><use xlink:href="#15" y="30.394"/><use xlink:href="#16" y="32.565"/><use xlink:href="#17" y="34.736"/><use xlink:href="#18" y="36.907"/><use xlink:href="#19" y="39.078"/><use xlink:href="#20" y="41.249"/><use xlink:href="#21" y="43.42"/><use xlink:href="#22" y="45.591"/><use xlink:href="#23" y="47.762"/><use xlink:href="#24" y="49.933"/><use xlink:href="#25" y="52.104"/><use xlink:href="#26" y="54.275"/><use xlink:href="#27" y="56.446"/><use xlink:href="#28" y="58.617"/><use xlink:href="#29" y="60.788"/><use xlink:href="#29" y="62.959"/><use xlink:href="#29" y="65.13"/><use xlink:href="#29" y="67.301"/><use xlink:href="#30" y="69.472"/><use xlink:href="#31" y="71.643"/></svg><svg x="4270"><use xlink:href="#a"/><use xlink:href="#1"/><use xlink:href="#2" y="2.171"/><use xlink:href="#3" y="4.342"/><use xlink:href="#4" y="6.513"/><use xlink:href="#5" y="8.684"/><use xlink:href="#6" y="10.855"/><use xlink:href="#7" y="13.026"/><use xlink:href="#8" y="15.197"/><use xlink:href="#9" y="17.368"/><use xlink:href="#10" y="19.539"/><use xlink:href="#11" y="21.71"/><use xlink:href="#12" y="23.881"/><use xlink:href="#13" y="26.052"/><use xlink:href="#14" y="28.223"/><use xlink:href="#15" y="30.394"/><use xlink:href="#16" y="32.565"/><use xlink:href="#17" y="34.736"/><use xlink:href="#18" y="36.907"/><use xlink:href="#19" y="39.078"/><use xlink:href="#20" y="41.249"/><use xlink:href="#21" y="43.42"/><use xlink:href="#22" y="45.591"/><use xlink:href="#23" y="47.762"/><use xlink:href="#24" y="49.933"/><use xlink:href="#25" y="52.104"/><use xlink:href="#26" y="54.275"/><use xlink:href="#27" y="56.446"/><use xlink:href="#28" y="58.617"/><use xlink:href="#29" y="60.788"/><use xlink:href="#29" y="62.959"/><use xlink:href="#29" y="65.13"/><use xlink:href="#29" y="67.301"/><use xlink:href="#30" y="69.472"/><use xlink:href="#31" y="71.643"/><use xlink:href="#32" y="73.814"/></svg><svg x="4392"><use xlink:href="#a"/><use xlink:href="#1"/><use xlink:href="#2" y="2.171"/><use xlink:href="#3" y="4.342"/><use xlink:href="#4" y="6.513"/><use xlink:href="#5" y="8.684"/><use xlink:href="#6" y="10.855"/><use xlink:href="#7" y="13.026"/><use xlink:href="#8" y="15.197"/><use xlink:href="#9" y="17.368"/><use xlink:href="#10" y="19.539"/><use xlink:href="#11" y="21.71"/><use xlink:href="#12" y="23.881"/><use xlink:href="#13" y="26.052"/><use xlink:href="#14" y="28.223"/><use xlink:href="#15" y="30.394"/><use xlink:href="#16" y="32.565"/><use xlink:href="#17" y="34.736"/><use xlink:href="#18" y="36.907"/><use xlink:href="#19" y="39.078"/><use xlink:href="#20" y="41.249"/><use xlink:href="#21" y="43.42"/><use xlink:href="#22" y="45.591"/><use xlink:href="#23" y="47.762"/><use xlink:href="#24" y="49.933"/><use xlink:href="#25" y="52.104"/><use xlink:href="#26" y="54.275"/><use xlink:href="#27" y="56.446"/><use xlink:href="#28" y="58.617"/><use xlink:href="#29" y="60.788"/><use xlink:href="#29" y="62.959"/><use xlink:href="#29" y="65.13"/><use xlink:href="#29" y="67.301"/><use xlink:href="#30" y="69.472"/><use xlink:href="#31" y="71.643"/><use xlink:href="#32" y="73.814"/><use xlink:href="#3" y="75.985"/></svg></svg></g></g></svg></svg>